<?xml version="1.0" standalone="no"?>
<!DOCTYPE svg PUBLIC "-//W3C//DTD SVG 20010904//EN"
 "http://www.w3.org/TR/2001/REC-SVG-20010904/DTD/svg10.dtd">
<svg version="1.0" xmlns="http://www.w3.org/2000/svg"
 width="256.000000pt" height="256.000000pt" viewBox="0 0 256.000000 256.000000"
 preserveAspectRatio="xMidYMid meet">
<metadata>
Created by potrace 1.11, written by Peter Selinger 2001-2013
</metadata>
<g transform="translate(0.000000,256.000000) scale(0.100000,-0.100000)"
fill="#000000" stroke="none">
<path d="M1130 1780 l0 -229 -192 111 c-106 60 -195 112 -198 113 -6 4 -164
-265 -158 -270 5 -4 256 -149 286 -164 15 -8 44 -25 66 -38 l38 -25 -187 -108
c-103 -60 -191 -112 -196 -117 -10 -10 138 -269 152 -265 6 1 43 21 82 44 40
22 92 52 117 66 25 14 78 45 118 68 l72 43 0 -230 0 -230 157 3 157 3 0 227 0
227 31 -18 c91 -55 349 -202 357 -204 10 -2 157 239 157 258 1 9 -193 125
-342 207 l-49 26 74 42 c40 23 90 53 110 66 21 13 40 24 43 24 2 0 33 17 67
38 35 21 71 41 81 45 24 9 22 17 -17 84 -18 32 -52 90 -75 130 l-41 72 -143
-83 c-78 -45 -167 -96 -197 -114 l-56 -31 1 217 c0 119 -1 223 -3 230 -3 9
-44 12 -158 12 l-154 0 0 -230z"/>
</g>
</svg>
